<svg xmlns="http://www.w3.org/2000/svg" viewBox="0 0 227.4 56.2"><defs><style>.cls-1{fill:#c8a977;}.cls-2{fill:#002d74;}.cls-3{fill:#784311;}.cls-4{fill:#007853;}.cls-5{fill:#231f20;}.cls-6{fill:#005850;}.cls-7{fill:#ce0e2d;}.cls-8{fill:#54565a;}</style></defs><g id="Layer_2" data-name="Layer 2"><g id="Layer_1-2" data-name="Layer 1"><path class="cls-1" d="M.5.6V33.7h0a22,22,0,0,0,22.2,22,22,22,0,0,0,22.1-22V.6Z"/><polygon class="cls-2" points="0.4 16.2 7 16.2 22.6 38.3 22.6 55.4 0.4 23.6 0.4 16.2"/><path class="cls-3" d="M35.5,20.2c0,.2-.1.5-.1.7a5.7,5.7,0,0,0-1.3-2.1l.7-.4a2.4,2.4,0,0,1,.7,1.8m-1.8,1.3a.9.9,0,0,1-.9-.9.6.6,0,0,1,.1-.4,3.9,3.9,0,0,1,.8-1l.8,1c0,.1.1.3.1.4a.9.9,0,0,1-.9.9M32,20.9a1.7,1.7,0,0,1-.1-.7,2.8,2.8,0,0,1,.6-1.8l.7.4A5.5,5.5,0,0,0,32,20.9m1.7-3.4.7.5-.7.5-.8-.5.8-.5m8.5,2.3a.4.4,0,0,0-.5-.1.4.4,0,0,0-.1.3h-.2a5.5,5.5,0,0,0-3.1-2.5v-.3a.3.3,0,0,0,.3-.3.5.5,0,0,0-.3-.3c-.2,0-.4.1-.4.3s.1.2.1.3v.2H36.8l-1.8.3-.6-.5h.2a5.6,5.6,0,0,0,3.5-2.3h0A14.7,14.7,0,0,0,40,10h.3l.2.2a.4.4,0,0,0,.4-.2c0-.2,0-.4-.2-.4s-.3,0-.4.1h-.2a16.6,16.6,0,0,0,.2-2.4h-.6a19.4,19.4,0,0,1-.2,2.4h-.2L39,9.4c-.2,0-.4.1-.4.3s.2.3.4.3h.5a15,15,0,0,1-1.9,4.7,2.7,2.7,0,0,1-.7.8l-.2-.2a.3.3,0,0,0-.5-.3.3.3,0,0,0,0,.4h.3l.2.2a5.7,5.7,0,0,1-2.2,1.1h0l-.8.2-.8-.2h0a6.1,6.1,0,0,1-2.3-1.1l.2-.2h.3a.2.2,0,0,0,.1-.4c-.1-.2-.3-.2-.5-.1a.6.6,0,0,0-.1.4l-.2.2-.7-.8h0a12.8,12.8,0,0,1-1.8-4.7h.5a.3.3,0,0,0,0-.6c-.2,0-.3.1-.3.2h-.3a19.4,19.4,0,0,1-.2-2.4h-.5a16.6,16.6,0,0,0,.2,2.4H27a.2.2,0,0,0-.3-.1c-.2,0-.3.2-.2.4s.2.2.4.2l.2-.2h.2a14.9,14.9,0,0,0,2,4.9h0a5.4,5.4,0,0,0,3.5,2.3H33l-.6.5a5.8,5.8,0,0,0-1.9-.3H29.3v-.2a.4.4,0,0,0,.1-.3.3.3,0,0,0-.3-.3.3.3,0,0,0-.3.3c0,.2.1.3.2.3v.3a5,5,0,0,0-3,2.5h-.2c0-.1-.1-.2-.2-.3s-.3,0-.4.1a.2.2,0,0,0,.1.4.3.3,0,0,0,.4,0h.2a5.4,5.4,0,0,0-.5,2.1H26a4.3,4.3,0,0,1,.4-1.9l.2.2.2.2a.3.3,0,1,0,.3-.5h-.6a4.7,4.7,0,0,1,4-2.4,4,4,0,0,1,1.5.3,2.7,2.7,0,0,0-.7,2,3.4,3.4,0,0,0,.8,2.1.3.3,0,0,1,.1.2.7.7,0,0,1,.3.6l-.2,15.4a2.1,2.1,0,0,1-.4,1.2,11.1,11.1,0,0,1-4,2.1,3.1,3.1,0,0,0-2.4,2.1,3.7,3.7,0,0,1,2.3-1,1.8,1.8,0,0,0,1.3-.6c-.1.5-1.2,1.2-1.9,1.4a2.9,2.9,0,0,0-1.9,2.2,3,3,0,0,1,1.2-1.2,4.1,4.1,0,0,0,.5,3.1,3.3,3.3,0,0,1,.1-2.2c.2-.4.5-.7.4-1.2l1-.5a3.5,3.5,0,0,0,1,2.9s-.9-3,.9-3.9a4.5,4.5,0,0,0,1.7-1.3,3.2,3.2,0,0,0,.1.8c.1.3,0,.5-.2,1.2a3.5,3.5,0,0,0,.1,2.5,1,1,0,0,1,0,1.2,2,2,0,0,0,.5-1.8,2.7,2.7,0,0,1,.6-1.7c.3-.4.4-.6.3-1.5s.1-.8.5-.8.5.2.3,1a1.6,1.6,0,0,0,.3,1.4,2.7,2.7,0,0,1,.6,2.4v.3a4,4,0,0,0,.6-2.6,1.6,1.6,0,0,0-.4-1,1.1,1.1,0,0,1-.2-.8.6.6,0,0,1,1-.1c.1.1.2.3.1.7a1.3,1.3,0,0,0,.3,1,1.2,1.2,0,0,1,.1.9V45a2.3,2.3,0,0,0,.4-1.9,2.4,2.4,0,0,1,0-.9.5.5,0,0,1,.7-.3,3.6,3.6,0,0,0,1.8.3,1.2,1.2,0,0,0,1-1.3A1.7,1.7,0,0,1,39,41l-1.4-.3a3.7,3.7,0,0,1-2.1-.9,2.1,2.1,0,0,1-.4-1.4h0l-.2-15.2a1.1,1.1,0,0,1,.2-.6l.2-.2a3.3,3.3,0,0,0,.7-2.1,3.2,3.2,0,0,0-.6-2,3.2,3.2,0,0,1,1.4-.3,4.4,4.4,0,0,1,4,2.4h-.6c-.1.1-.2.3-.1.4s.3.2.5.1a.3.3,0,0,0,.1-.2l.3-.2a6.5,6.5,0,0,1,.4,1.9h.5a5.2,5.2,0,0,0-.4-2.1h.2a.3.3,0,0,0,.4,0c.1-.1.2-.3.1-.4"/><path class="cls-4" d="M27.9,12.1c.3,1.1-.9,1.8-1.5,1.9s.1-.1.1-.4a.9.9,0,0,1-.9.3l.2-.2a1,1,0,0,1-.8,0l.2-.2a1.1,1.1,0,0,1-.7-.2c-.3-.1-.6.1-.6.2a1.3,1.3,0,0,1,.9-1.2h-.2a.8.8,0,0,1,.7-.4H25a.9.9,0,0,1,.9-.3c-.1-.2-.2-.2-.3-.2s1.9-.3,2.3.8"/><path class="cls-5" d="M27.7,13.1a2.3,2.3,0,0,1-1.2.8c.1-.1.1-.1.1-.2h-.1c-.1.2-.5.3-.8.3s.1-.1.1-.2h0a1.5,1.5,0,0,1-.7,0v-.2h0a.7.7,0,0,1-.6-.1,1.1,1.1,0,0,0-.6,0,1.1,1.1,0,0,1,.9-.9h-.2l.6-.3h-.2c.2-.1.7-.2.8-.1H26l-.2-.2a2.3,2.3,0,0,1,1.4.1,1.1,1.1,0,0,1,.6.7,1.1,1.1,0,0,1-.1,1m.2-1a1.1,1.1,0,0,0-.7-.8,1.8,1.8,0,0,0-1.6,0h.2c-.3,0-.7.1-.8.4h.1c-.1.1-.4.2-.5.5h.1a1.4,1.4,0,0,0-.8,1.2H24a.3.3,0,0,1,.5-.1H25c.2.2.5.1.7.1h-.1a1.4,1.4,0,0,0,.9-.1h-.1a1.9,1.9,0,0,0,1.4-.9,1.1,1.1,0,0,0,.1-1"/><path class="cls-6" d="M27.5,12a.4.4,0,0,1-.2.3,2.8,2.8,0,0,0-1.4-.1,4.7,4.7,0,0,0-1.4.8s1.8-1.4,3.2-.4l-.3-.2c0-.1.1-.2.1-.4"/><path class="cls-4" d="M28.5,11.9c.3,1,1.7.9,2.3.6l-.4-.2a1,1,0,0,0,.9-.3h-.2a1.1,1.1,0,0,0,.6-.4h-.3a1.2,1.2,0,0,0,.5-.5c.1-.3.5-.3.5-.3a1.2,1.2,0,0,0-1.4-.3l.2-.2a1,1,0,0,0-.8,0l.2-.2a.9.9,0,0,0-.9.3c0-.2,0-.2.1-.3s-1.7.9-1.3,2"/><path class="cls-5" d="M31.8,10.9a.8.8,0,0,1-.4.4h.2a1.1,1.1,0,0,1-.5.4h.1a1.3,1.3,0,0,1-.8.3h.2a2.2,2.2,0,0,1-1.4,0,.8.8,0,0,1-.7-.7,1,1,0,0,1,.1-.9,1.6,1.6,0,0,1,1.1-.9c-.1,0-.1.1-.1.2h.1a1,1,0,0,1,.8-.4v.2h0a1.1,1.1,0,0,1,.7-.1H31a1.2,1.2,0,0,1,1.3.3.7.7,0,0,0-.5.3m.7-.3a1.3,1.3,0,0,0-1.3-.4h-.6a1,1,0,0,0-.9.2h.1a2.4,2.4,0,0,0-1.3,1,1.4,1.4,0,0,0-.1,1.1,1.2,1.2,0,0,0,.7.7h.7l1-.2h-.2l.8-.4h-.2a.9.9,0,0,0,.5-.4h-.2a1,1,0,0,0,.4-.5c.1-.2.5-.2.5-.2h.1"/><path class="cls-6" d="M28.7,11.5l.3.2a2.6,2.6,0,0,1,1.1-.9,3.1,3.1,0,0,1,1.6-.2s-2.3-.1-2.8,1.5v-.3q-.2,0-.3-.3"/><path class="cls-4" d="M27.6,18.2c-.7.9-1.9.4-2.4,0h.3a1,1,0,0,1-.7-.6c.1.1.1.1.2,0a.7.7,0,0,1-.4-.6.1.1,0,0,0,.2,0l-.3-.5a.5.5,0,0,0-.5-.5,1.3,1.3,0,0,1,1.5.1v-.3a1.1,1.1,0,0,1,.7.3.4.4,0,0,0-.1-.3.9.9,0,0,1,.8.6c.1-.2,0-.3,0-.4s1.4,1.3.8,2.3"/><path class="cls-5" d="M27.5,18.1a1,1,0,0,1-.8.5,1.5,1.5,0,0,1-1.3-.4h.1a.9.9,0,0,1-.6-.5h.2a.8.8,0,0,1-.5-.5h.3a.5.5,0,0,1-.3-.5,1.1,1.1,0,0,0-.4-.5c.6-.4,1.2.1,1.3.1h.1v-.2h-.1l.6.2h.1c0-.1,0-.2-.1-.2s.7.3.7.5V16a2.5,2.5,0,0,1,.8,1.2,1,1,0,0,1-.2.9m.3-.9a2,2,0,0,0-1-1.3h0a1,1,0,0,0-.8-.4h.1c-.2-.1-.4-.3-.7-.2h0a1.4,1.4,0,0,0-1.4.1h-.1a.7.7,0,0,1,.6.4.8.8,0,0,0,.2.5h-.2a1.5,1.5,0,0,0,.4.6h-.2a.9.9,0,0,0,.7.5h-.2a2.2,2.2,0,0,0,1.3.5h.2a1.1,1.1,0,0,0,.9-.5,1.2,1.2,0,0,0,.2-1"/><path class="cls-6" d="M27.4,17.8h-.3a2.9,2.9,0,0,0-.8-1.1,3.6,3.6,0,0,0-1.5-.6s2.2.5,2.2,2.2a.4.4,0,0,0,.1-.3.4.4,0,0,0,.3-.2"/><path class="cls-4" d="M28.1,18.7c-.9.7-.3,1.9.1,2.4a.8.8,0,0,1,.1-.4c-.1.2.3.7.6.8a.4.4,0,0,1-.1-.3,1.5,1.5,0,0,0,.7.5c-.1-.2,0-.3,0-.3l.6.3c.3,0,.4.4.4.4a1.2,1.2,0,0,0-.1-1.4h.2a1.1,1.1,0,0,0-.2-.8h.2c0-.3-.3-.7-.6-.7h.4c-.3-.5-1.4-1.4-2.3-.7"/><path class="cls-5" d="M30.5,22c0-.1-.2-.4-.4-.4a.6.6,0,0,1-.6-.3h0c-.1,0-.1.1-.1.2a1.1,1.1,0,0,1-.5-.4h-.1v.2a.9.9,0,0,1-.5-.7v0a.3.3,0,0,1-.1.2,2.5,2.5,0,0,1-.4-1.3c0-.4.2-.6.5-.9a1.3,1.3,0,0,1,.9-.2,2.1,2.1,0,0,1,1.2.8H30c.2,0,.5.4.6.6h-.3a1,1,0,0,1,.3.6h-.2a1.2,1.2,0,0,1,.1,1.3m.1-1.2h.1a1.2,1.2,0,0,0-.2-.7h.2a1.2,1.2,0,0,0-.5-.7h.3a2.2,2.2,0,0,0-1.4-1,1.3,1.3,0,0,0-1,.3,1.1,1.1,0,0,0-.5.9,2.3,2.3,0,0,0,.6,1.5h.1a.1.1,0,0,1-.1-.1,1.4,1.4,0,0,0,.7.6h0a.7.7,0,0,0,.6.4h0l.6.2c.2,0,.3.3.4.4v0a1.2,1.2,0,0,0,.1-1.3"/><path class="cls-6" d="M28.5,18.8a.5.5,0,0,0,0,.4,2,2,0,0,1,1.1.7,4,4,0,0,1,.7,1.5s-.6-2.2-2.3-2.2h.3c0-.1,0-.2.2-.4"/><path class="cls-4" d="M39.5,12.1c-.3,1.1.9,1.7,1.5,1.8s-.2-.1-.2-.3a.7.7,0,0,0,.9.2c-.1,0-.1,0-.1-.1a1,1,0,0,0,.7-.1v-.2c.2.1.3,0,.6-.1a.5.5,0,0,1,.6.1,1.2,1.2,0,0,0-.9-1.1h.2a1.1,1.1,0,0,0-.6-.4h.2c-.1-.2-.7-.3-.9-.2s.2-.2.3-.2a1.6,1.6,0,0,0-2.2.8"/><path class="cls-6" d="M39.9,11.9s0,.3.2.4a1.3,1.3,0,0,1,1.3-.1,6.9,6.9,0,0,1,1.5.7s-1.8-1.3-3.2-.3l.2-.3s-.1-.1,0-.4"/><path class="cls-4" d="M38.9,11.9c-.4,1.1-1.7.9-2.3.6h.3A.9.9,0,0,1,36,12h.3s-.5-.1-.6-.5h.2l-.4-.4c-.1-.4-.6-.3-.6-.3a1.3,1.3,0,0,1,1.4-.4.3.3,0,0,0-.1-.2,1.1,1.1,0,0,1,.7.1c0-.1,0-.2-.1-.2a.9.9,0,0,1,.9.3.5.5,0,0,0-.2-.4c.7.2,1.8.9,1.4,2"/><path class="cls-6" d="M38.7,11.6s-.2.2-.4.1a1.7,1.7,0,0,0-1-.8,5.1,5.1,0,0,0-1.7-.3s2.3,0,2.8,1.6a.5.5,0,0,0,0-.4.4.4,0,0,0,.3-.2"/><path class="cls-4" d="M41.8,21.1c-1.1,0-1.5,1.3-1.5,1.9s.1-.2.3-.2a1,1,0,0,0,0,.9v-.2a1.7,1.7,0,0,0,.2.8l.2-.3a.9.9,0,0,0,.3.6.8.8,0,0,1,0,.7,1.3,1.3,0,0,0,.9-1.2v.2a.9.9,0,0,0,.3-.7c0,.1.1.1.1.2s.2-.8,0-.9.3.1.3.2-.1-1.9-1.3-2"/><path class="cls-6" d="M42,21.5l-.2.2a3.5,3.5,0,0,1,.3,1.3,3.8,3.8,0,0,1-.4,1.6s1-2.1-.3-3.2l.3.2H42"/><path class="cls-4" d="M27.7,8.9c-1.1.4-1.8-.7-1.9-1.3h.3a.9.9,0,0,1-.3-.9L26,7a1,1,0,0,1,0-.8h.2a1.5,1.5,0,0,1,.1-.6.4.4,0,0,0-.2-.6,1.3,1.3,0,0,1,1.2.8s.1,0,.1-.2a1.1,1.1,0,0,1,.4.6c.1-.1.1-.1.1-.2s.4.7.3.9.2-.3.2-.4.4,2-.7,2.3"/><path class="cls-6" d="M27.8,8.5h-.3a2.1,2.1,0,0,0,0-1.4,3.4,3.4,0,0,0-.9-1.4s1.5,1.7.6,3.2l.2-.3h.4"/><path class="cls-4" d="M39.6,8.9c1.1.4,1.8-.7,2-1.3h-.3a1.2,1.2,0,0,0,.3-.9l-.2.2a2,2,0,0,0,0-.8h-.3a.6.6,0,0,0,0-.6.5.5,0,0,1,.1-.6,1.3,1.3,0,0,0-1.2.8V5.7a1,1,0,0,0-.5.6V6.1c-.3.1-.4.7-.4.9a.8.8,0,0,1-.1-.4c-.3.6-.4,2,.6,2.3"/><path class="cls-6" d="M39.5,8.5h.4a2.1,2.1,0,0,1,0-1.4,3.2,3.2,0,0,1,.8-1.4s-1.5,1.7-.5,3.2l-.3-.3h-.4"/><path class="cls-4" d="M39.8,18.2c.7.9,1.9.4,2.4,0s-.2.1-.4,0a1,1,0,0,0,.8-.6h-.2a.7.7,0,0,0,.4-.6h-.2l.3-.6c0-.3.4-.4.5-.4a1.4,1.4,0,0,0-1.5,0v-.2a.8.8,0,0,0-.7.2v-.2c-.3,0-.7.3-.7.5s0-.3,0-.3-1.4,1.3-.8,2.2"/><path class="cls-6" d="M40,17.8s.2.2.3.1a2.3,2.3,0,0,1,.8-1.1l1.5-.7s-2.2.6-2.3,2.3V18a.4.4,0,0,1-.3-.2"/><path class="cls-4" d="M39.2,18.7a1.5,1.5,0,0,1-.1,2.3.2.2,0,0,0,0-.3,1,1,0,0,1-.6.7v-.2a.7.7,0,0,1-.6.4v-.3a.7.7,0,0,1-.6.3c-.4,0-.5.5-.4.5a1.2,1.2,0,0,1,0-1.5h-.2A1.1,1.1,0,0,1,37,20h-.3a1.2,1.2,0,0,1,.6-.8c-.2-.1-.3,0-.4.1s1.4-1.4,2.3-.7"/><path class="cls-6" d="M38.8,18.8s.2.2.1.4a1.9,1.9,0,0,0-1.2.7,4.1,4.1,0,0,0-.7,1.5s.7-2.2,2.4-2.2H39a.4.4,0,0,0-.2-.3"/><rect class="cls-7" x="0.5" y="0.6" width="22" height="17.19"/><path class="cls-4" d="M25.4,21.1c1.2-.1,1.6,1.2,1.6,1.8s-.1-.2-.3-.2a.7.7,0,0,1,.1.9c0-.1,0-.1-.1-.1a.8.8,0,0,1-.2.7l-.2-.2a.7.7,0,0,1-.2.6.8.8,0,0,0,0,.7,1.3,1.3,0,0,1-1-1.1v.2a1.7,1.7,0,0,1-.4-.7.3.3,0,0,1-.1.2,1.2,1.2,0,0,1-.1-1c-.2.1-.2.2-.2.3a1.6,1.6,0,0,1,1.1-2.1"/><path class="cls-6" d="M25.2,21.5l.3.2a3.7,3.7,0,0,0-.3,1.4,5.3,5.3,0,0,0,.5,1.5s-1-2,.2-3.2l-.3.2h-.4"/><path class="cls-5" d="M44.8,33.7a22,22,0,0,1-22.1,22A22,22,0,0,1,.5,33.7h0V23.9L22.7,55.7V38.2L8.4,18H22.7V.6H44.8ZM8.1,18,22.4,38.3V54.9L.5,23.5V18ZM.5,17.7V.6H22.4V17.7ZM0,.1V33.7a22.7,22.7,0,0,0,45.3,0V.1Z"/><path class="cls-5" d="M33.7,17.6l.6.4-.6.4-.6-.4.6-.4m-.1.9h.1l.8-.5h0l-.8-.5h-.1l-.7.5h0l.7.5"/><path class="cls-5" d="M35.4,20.6a9.4,9.4,0,0,0-1.2-1.8l.6-.3a2.7,2.7,0,0,1,.6,1.7v.4m-.5-2.3h-.1l-.7.5h0a5.9,5.9,0,0,1,1.2,2v0c0-.2.1-.5.1-.7a3.4,3.4,0,0,0-.7-1.9Z"/><path class="cls-5" d="M32,20.6c0-.1-.1-.3-.1-.4a3.2,3.2,0,0,1,.6-1.7l.6.3A5.8,5.8,0,0,0,32,20.6m1.4-1.8h-.1l-.8-.5h0a2.8,2.8,0,0,0-.7,1.9,1.7,1.7,0,0,0,.1.7v0a6.3,6.3,0,0,1,1.3-2Z"/><path class="cls-5" d="M33.7,21.4a.7.7,0,0,1-.8-.8.6.6,0,0,1,.1-.4l.7-.9.7.9a.6.6,0,0,1,.1.4.8.8,0,0,1-.8.8m0-2.3h-.1a4.4,4.4,0,0,0-.8,1.1c0,.1-.1.3-.1.4a1,1,0,0,0,1,1,1,1,0,0,0,.9-1,1.1,1.1,0,0,0-.1-.5l-.8-1"/><path class="cls-5" d="M42.8,13.3h-.7v.2h-.7a.1.1,0,0,0,.1.1,1,1,0,0,1-.8-.2h-.1a.3.3,0,0,1,.1.2,1.7,1.7,0,0,1-1.1-.8,1,1,0,0,1-.2-.9,1.1,1.1,0,0,1,.7-.8,2.2,2.2,0,0,1,1.4,0h-.2a.8.8,0,0,1,.8.2.1.1,0,0,0-.1.1h0a.8.8,0,0,1,.6.3h-.2a1.5,1.5,0,0,1,.9,1c-.2-.1-.4-.2-.6,0m-.1-1h.1c-.2-.2-.4-.4-.6-.4h.2a1.3,1.3,0,0,0-.8-.3h.2a2.5,2.5,0,0,0-1.7.1,1.1,1.1,0,0,0-.7.8,1.2,1.2,0,0,0,.2,1A2.4,2.4,0,0,0,41,14h0c-.1-.1-.1-.1-.1-.2a.8.8,0,0,0,.8.2h0a.8.8,0,0,0,.7,0h-.1a.6.6,0,0,0,.5-.2.8.8,0,0,1,.6.1h.1a1.3,1.3,0,0,0-.8-1.1"/><path class="cls-5" d="M38.9,11.9a2.3,2.3,0,0,1-.7.7,1.7,1.7,0,0,1-1.4-.1h.1c-.1.1-.6,0-.8-.2h.2a1.1,1.1,0,0,1-.6-.4h.2l-.4-.5a.5.5,0,0,0-.5-.3,1.1,1.1,0,0,1,1.3-.2h.1v-.2a.8.8,0,0,1,.6.1H37V10c.3,0,.7.1.8.3h0V10a4.4,4.4,0,0,1,1.1.9,1.1,1.1,0,0,1,.1,1m0-1a2.3,2.3,0,0,0-1.3-1h0c-.2-.1-.6-.3-.8-.2h-.6a1.4,1.4,0,0,0-1.3.4h0a.7.7,0,0,1,.6.3l.3.4h-.2c.1.3.4.4.6.5H36c.1.2.5.3.8.3h-.2c-.1,0,0,.1,0,.1l1,.2h.6a1.1,1.1,0,0,0,.7-.8.9.9,0,0,0,0-1"/><path class="cls-5" d="M42.8,16.4a.5.5,0,0,1-.3.5h0s.1.1.3,0a1,1,0,0,1-.5.6h.2a1.1,1.1,0,0,1-.6.4H42a2.5,2.5,0,0,1-1.3.4,1.1,1.1,0,0,1-.8-.5,1.2,1.2,0,0,1-.2-1,1.9,1.9,0,0,1,.8-1.1v.2h.1c0-.1.4-.4.6-.5V16h.1a1,1,0,0,1,.6-.3h0V16h.1a1.3,1.3,0,0,1,1.3,0c-.1,0-.3.2-.4.4m.6-.4h0a1.3,1.3,0,0,0-1.4,0h0l-.7.2h.1a.1.1,0,0,0-.1-.1h0a1.2,1.2,0,0,0-.7.5V16h0a2.3,2.3,0,0,0-1,1.3,1.2,1.2,0,0,0,.2,1,1.5,1.5,0,0,0,.9.6h.2a2.2,2.2,0,0,0,1.3-.5H42a1.1,1.1,0,0,0,.7-.6h-.2a1.5,1.5,0,0,0,.4-.6h-.1c0,.1-.1,0-.1,0a.6.6,0,0,0,.2-.5.7.7,0,0,1,.4-.4h.1"/><path class="cls-5" d="M39.1,20.6H39c.1.1-.2.5-.4.6v-.2h-.1a.7.7,0,0,1-.6.4.1.1,0,0,0,0-.2h-.1l-.5.3c-.3,0-.4.2-.5.4a1.1,1.1,0,0,1,.2-1.3h-.2A1.3,1.3,0,0,1,37,20h-.2a.6.6,0,0,1,.5-.6h-.2a1.8,1.8,0,0,1,1.1-.7,1.2,1.2,0,0,1,1,.2,1.4,1.4,0,0,1,.5.8,2.6,2.6,0,0,1-.5,1.4.4.4,0,0,0-.1-.3m.2-2a1.5,1.5,0,0,0-1.1-.2,2.2,2.2,0,0,0-1.3.9h.2a1.2,1.2,0,0,0-.4.8h.2a.6.6,0,0,0-.2.6h.1a1.4,1.4,0,0,0,0,1.4h.1a.4.4,0,0,1,.4-.4c.3-.1.4-.1.5-.3v.2h.1a1.5,1.5,0,0,0,.6-.4h0a1.1,1.1,0,0,0,.6-.7V21h.1a3,3,0,0,0,.6-1.6,2,2,0,0,0-.5-.9"/><path class="cls-5" d="M43.1,23l-.2-.2h-.1a1.1,1.1,0,0,1,0,.8h-.1c0-.1,0-.1-.1,0h0a1,1,0,0,1-.2.6h-.2a1.2,1.2,0,0,1-.7,1.1.5.5,0,0,0-.1-.6.7.7,0,0,1-.2-.6h-.1l-.2.2a1,1,0,0,1-.1-.7h-.1c-.1,0-.1,0-.1.1a1.1,1.1,0,0,1,0-.8.1.1,0,0,0,.1-.1h-.3a2,2,0,0,1,.5-1.3l.3-.2h.7a1.2,1.2,0,0,1,.8.4,2.5,2.5,0,0,1,.4,1.4M41,20.5h0l-.4.2h0a.1.1,0,0,1-.1.1h-.3c0-.1-.1-.1,0-.2s0-.1.1-.2h.3l.3-.2h0a4.6,4.6,0,0,0-4.1-2.4,3.2,3.2,0,0,0-1.4.2h-.1a3.7,3.7,0,0,1,.7,2,3.4,3.4,0,0,1-.8,2.1h-.1a.9.9,0,0,0-.3.7L35,38.3h0a2.2,2.2,0,0,0,.5,1.4,2.8,2.8,0,0,0,2.1,1,2.5,2.5,0,0,1,1.2.2H39a1.8,1.8,0,0,0,1.6,0,1.3,1.3,0,0,1-1,1.1,3.7,3.7,0,0,1-1.7-.2h-.1c-.3,0-.6,0-.7.4a1.2,1.2,0,0,0,0,.9,2.7,2.7,0,0,1-.3,1.6,1,1,0,0,0-.2-1,.9.9,0,0,1-.2-.9,1.5,1.5,0,0,0-.2-.8.8.8,0,0,0-.6-.2c-.2,0-.3.2-.4.4a.8.8,0,0,0,.1.8,1.6,1.6,0,0,1,.4,1,3.9,3.9,0,0,1-.4,2.2,3,3,0,0,0-.6-2.4,1.8,1.8,0,0,1-.4-1.3,1.4,1.4,0,0,0,0-.9l-.3-.2a.5.5,0,0,0-.4.2c-.2.1-.2.4-.2.7s0,1.1-.2,1.4a3.2,3.2,0,0,0-.6,1.8,3.9,3.9,0,0,1-.2,1.3,1.9,1.9,0,0,0-.2-.7,3.5,3.5,0,0,1-.2-2.5c.3-.6.4-.9.3-1.2a3.2,3.2,0,0,1-.1-.8v-.3l-.2.2a3.7,3.7,0,0,1-1.6,1.3h-.1c-1.4.8-1.2,2.9-1,3.7a3.6,3.6,0,0,1-.7-2.4v-.2h-.2l-1,.4h0a1,1,0,0,1-.2.9l-.2.3a5.2,5.2,0,0,0-.2,1.8,5.3,5.3,0,0,1-.3-2.7h-.1a3.6,3.6,0,0,0-.9.8,2.5,2.5,0,0,1,1.7-1.6,4,4,0,0,0,2-1.4v-.3l-.2.2a2,2,0,0,1-1.3.5h0a3.4,3.4,0,0,0-2.1.8,3.1,3.1,0,0,1,2.2-1.7,10.1,10.1,0,0,0,4-2.2c.3-.2.4-.6.4-1.2l.2-15.4a1.4,1.4,0,0,0-.2-.7h-.1a3.4,3.4,0,0,1-.8-2.1,3.6,3.6,0,0,1,.6-2h0a3.9,3.9,0,0,0-1.5-.2,4.5,4.5,0,0,0-4,2.4h-.1l.4.2h.3c.1.1.1.1.1.2v.2h-.4v-.2h0l-.3-.2h-.1a1.9,1.9,0,0,0-.2.7h-.4a2.4,2.4,0,0,1,.2-.8H26l-.3-.2h-.4c0-.1-.1-.1-.1-.2a.3.3,0,0,1,.1-.2c0-.1.2-.1.3,0s.1.1.1.2h0l.3.2h.1A4.9,4.9,0,0,1,29,17.7h.1v-.3h0c-.2-.1-.2-.1-.2-.3h.4c0,.1.1.1.1.2a.3.3,0,0,1-.1.2h-.1v.4h.1a4.4,4.4,0,0,1,3,.2h.1l.6-.5h-.2a5.2,5.2,0,0,1-3.5-2.3A13.4,13.4,0,0,1,27.4,10H27v.2h-.4V9.9l.2-.2h.7a1.3,1.3,0,0,1-.1-.6h.4a2,2,0,0,0,.1.7h.3l.3-.2h.2v.4h-.8a12.9,12.9,0,0,0,1.9,4.7l.7.9h0l.3-.3h0a.2.2,0,0,1,.1-.3h.3v.2h-.4l-.3.3h.1a4.4,4.4,0,0,0,2.3,1l.8.2h0l.8-.2a5.2,5.2,0,0,0,2.3-1h0l-.3-.3h0c-.1,0-.2,0-.2-.1h-.1v-.2h.4c.1,0,.1.2.1.3h-.1l.3.3H37l.7-.9a12.8,12.8,0,0,0,1.8-4.7h-.7a.3.3,0,0,1-.1-.2V9.5H39l.2.2h.4c0-.3.1-.5.1-.7h.4c0,.2-.1.4-.1.6h.4c0-.1.2-.1.3-.1s.1.1.1.2v.2a.2.2,0,0,1-.3.1l-.2-.2h-.4A12.8,12.8,0,0,1,38,14.9a5.3,5.3,0,0,1-3.4,2.2h-.3l.6.5H35a4.7,4.7,0,0,1,3.1-.2h0v-.4h0c-.1,0-.1-.1-.1-.2s0-.1.1-.2h.3a.1.1,0,0,1,.1.1c0,.2-.1.2-.2.3h-.1v.3h.1a4.8,4.8,0,0,1,3,2.4h0l.3-.2h0l.2-.2a.2.2,0,0,1,.3,0c0,.1.1.2,0,.2s0,.1-.1.2h-.3l-.3.2h0l.3.8h-.4l-.3-.7m-14.6,1a3.1,3.1,0,0,1,.6,1.3l-.3-.2h0a1.1,1.1,0,0,1,.1.8h-.2a.7.7,0,0,1-.1.6h-.2a1.4,1.4,0,0,1-.2.6.5.5,0,0,0-.1.6,1.2,1.2,0,0,1-.8-1.1h-.1v.2a1.2,1.2,0,0,1-.2-.6h-.1c0,.1-.1.1-.1.2s-.2-.7,0-.8v-.2h-.2a.2.2,0,0,0-.2.2,2.4,2.4,0,0,1,.3-1.4,1,1,0,0,1,.8-.5h1m.7-12.6h-.4a1.8,1.8,0,0,1-.8-1.1h.2a1.5,1.5,0,0,1-.3-.8H26c.1,0,.1,0,0-.1a1.1,1.1,0,0,1,0-.6h.3a.6.6,0,0,1,0-.6c.2-.2.1-.4,0-.6a1.3,1.3,0,0,1,1,.9h.1V5.8a1.1,1.1,0,0,1,.4.5h.1V6.2a1.3,1.3,0,0,1,.3.8h0c.1-.1.2-.1.2-.2a2.2,2.2,0,0,1,0,1.4.9.9,0,0,1-.6.6c0,.1-.2.2-.5.2h-.2m11.8-.7A1.7,1.7,0,0,1,39,6.8c0,.1,0,.1.1.2h.1a.8.8,0,0,1,.2-.8v.2h0c.1,0,.1,0,.1-.1a1.5,1.5,0,0,1,.3-.5V6h.1a1.1,1.1,0,0,1,1-.9.7.7,0,0,0-.1.6c.1.3.2.4.1.6h.3a.8.8,0,0,1-.1.6h.2a.8.8,0,0,1-.3.8h.3a1.6,1.6,0,0,1-.9,1.1h-.5l-.5-.2a1.3,1.3,0,0,1-.7-.6m3.9,13.4a1.4,1.4,0,0,0-1-.5,2.4,2.4,0,0,0-.2-.8h.5c.1-.1.2-.2.2-.3s0-.2-.1-.2-.4-.3-.5-.1l-.2.2h-.1a5,5,0,0,0-3-2.5h.1a.5.5,0,0,0,.2-.4c0-.1,0-.2-.1-.2a.2.2,0,0,0-.2-.2h-.3a.4.4,0,0,0-.1.3c-.1.1,0,.2.1.3H38a6.1,6.1,0,0,0-3,.2l-.4-.3h0a5.4,5.4,0,0,0,3.5-2.4,14.4,14.4,0,0,0,2-4.8h.1c.1.1.1.2.2.2a.5.5,0,0,0,.6-.2.4.4,0,0,0-.1-.3.2.2,0,0,0-.2-.2c-.1-.1-.3,0-.4.1h-.2a1.5,1.5,0,0,0,.1-.7h.5a2.1,2.1,0,0,0,.9-1.3h-.2a.8.8,0,0,0,.2-.8h-.1a.1.1,0,0,1-.1.1.9.9,0,0,0,0-.7h-.2a1.3,1.3,0,0,0-.1-.6c-.1-.3.1-.5.1-.6h0a1.4,1.4,0,0,0-1.2.8h0c-.3.1-.4.4-.5.5h-.1a1.3,1.3,0,0,0-.3.8h-.2a2.5,2.5,0,0,0,0,1.7.9.9,0,0,0,.6.6v.7h-.2L39,9.3h-.3a.5.5,0,0,0,0,.6H39l.3-.2h.1a12.7,12.7,0,0,1-1.9,4.5,1.6,1.6,0,0,1-.6.8h-.1a.4.4,0,0,0-.1-.5.5.5,0,0,0-.6.1v.3l.2.3h.3v.2a5.1,5.1,0,0,1-2.1,1l-.8.2-.8-.2a6.2,6.2,0,0,1-2.2-1l.2-.2h.3v-.3a.4.4,0,0,0-.1-.3.3.3,0,0,0-.5-.1c-.2.1-.2.3-.2.5h-.1l-.6-.8A12.5,12.5,0,0,1,28,10h.1l.3.2h.3c0-.1.1-.2.1-.3V9.4h-.3l-.4.2h-.1c0-.2-.1-.5-.1-.7a1.1,1.1,0,0,0,.7-.6,2.4,2.4,0,0,0-.1-1.7h-.1a1.5,1.5,0,0,0-.4-.8h-.1a.9.9,0,0,0-.4-.5h-.1A1.2,1.2,0,0,0,26.2,5h-.1a.6.6,0,0,1,.2.6.7.7,0,0,0-.2.6h-.2c-.1.2,0,.5,0,.7a.1.1,0,0,0-.1-.1h0a.8.8,0,0,0,.2.8h-.3a2.3,2.3,0,0,0,1,1.3h.4c0,.3.1.5.1.7h-.1a.4.4,0,0,0-.5-.1l-.2.2v.3a.2.2,0,0,0,.2.2h.3a.2.2,0,0,0,.2-.2h.2a14.2,14.2,0,0,0,1.9,4.8,5.3,5.3,0,0,0,3.6,2.4h0l-.4.3a6.5,6.5,0,0,0-3.1-.2h0a.4.4,0,0,0,.1-.3c0-.1-.1-.2-.1-.3H29l-.3.2c-.1,0-.1.1-.1.2s.1.3.3.4h0A5.1,5.1,0,0,0,26,20h-.2c0-.1,0-.2-.1-.2s-.4-.1-.6.1V20a.4.4,0,0,0,.1.3h.6l-.3.8h-.1a1.1,1.1,0,0,0-.9.5,2.5,2.5,0,0,0-.3,1.6v0h.1a.8.8,0,0,0,.2.8h.1a1.1,1.1,0,0,0,.3.6h.1a1.3,1.3,0,0,0,1,1h0a1.1,1.1,0,0,1,0-.6c.2-.2.3-.3.3-.5h.1a.8.8,0,0,0,.2-.6h.2a1.4,1.4,0,0,0,0-.9h.2v-.2a2.1,2.1,0,0,0-.7-1.5h-.2a6.4,6.4,0,0,1,.2-.7h.2a.4.4,0,0,0,.1.3.6.6,0,0,0,.6-.1c0-.1.1-.2,0-.3a.4.4,0,0,0-.1-.3.4.4,0,0,0-.5,0h-.1A4.5,4.5,0,0,1,30.5,18l1.4.2a3.7,3.7,0,0,0-.7,2,3.7,3.7,0,0,0,.8,2.2h.2a1.4,1.4,0,0,1,.2.6l-.2,15.4a1.2,1.2,0,0,1-.4,1.1,10.8,10.8,0,0,1-3.9,2.1,3.2,3.2,0,0,0-2.4,2.2l-.2.3.3-.3a3.3,3.3,0,0,1,2.2-1h0a3,3,0,0,0,1-.2,5.4,5.4,0,0,1-1.6,1,2.4,2.4,0,0,0-1.9,2.2v.6l.2-.6a2.8,2.8,0,0,1,.9-1.1,4.9,4.9,0,0,0,.6,3l.2.3v-.3a3.5,3.5,0,0,1,.2-2.1c0-.1.1-.2.1-.3a1.7,1.7,0,0,0,.3-1l.8-.4h0a3.7,3.7,0,0,0,1,2.8l.2.2v-.3s-.8-3,.9-3.8h.1A3.6,3.6,0,0,0,32,41.8a1.3,1.3,0,0,1,.1.6c.1.3.1.5-.2,1.2a3,3,0,0,0,.2,2.5,1.3,1.3,0,0,1,0,1.2h.1a3,3,0,0,0,.5-1.9,2.7,2.7,0,0,1,.6-1.7c.3-.4.4-.6.3-1.5a.6.6,0,0,1,.1-.6c0-.1.1-.1.3-.1h.2c.1.1.1.3,0,.8a2.3,2.3,0,0,0,.4,1.4,3.4,3.4,0,0,1,.6,2.4v.5l.2-.2a4.2,4.2,0,0,0,.5-2.6,1.8,1.8,0,0,0-.4-1.1.9.9,0,0,1-.1-.7.5.5,0,0,1,.4-.2c.1-.1.3,0,.4.1s.2.3.1.7a1.7,1.7,0,0,0,.3,1,1.1,1.1,0,0,1,.2.9.8.8,0,0,0-.1.3v.4l.2-.3a2.2,2.2,0,0,0,.5-2,2.4,2.4,0,0,1,0-.9.4.4,0,0,1,.6-.2h0a3.1,3.1,0,0,0,1.8.2,1.3,1.3,0,0,0,1.1-1.3h-.1a1.7,1.7,0,0,1-1.6.1.1.1,0,0,1-.1-.1l-1.2-.2a2.8,2.8,0,0,1-2.1-.9,1.8,1.8,0,0,1-.4-1.3L35,23.1a.7.7,0,0,1,.2-.6h.1a3.7,3.7,0,0,0,.8-2.2,3.6,3.6,0,0,0-.6-2l1.3-.2a4.4,4.4,0,0,1,3.9,2.3h-.1a.3.3,0,0,0-.4,0c-.1.1-.2.2-.2.3a.4.4,0,0,0,.1.3.4.4,0,0,0,.5.1c.1-.1.2-.2.2-.3h.1a1.4,1.4,0,0,1,.2.6l-.3.3a2.3,2.3,0,0,0-.5,1.5h.1c0-.1,0-.1.1-.1a1.1,1.1,0,0,0,0,.8c.1,0,.1.1.1,0h.1a1,1,0,0,0,.2.7H41c0-.1,0-.1.1-.2a1.4,1.4,0,0,0,.2.6.5.5,0,0,1,.1.5h0a1.2,1.2,0,0,0,.9-1h.1a1.1,1.1,0,0,0,.3-.7h.1c.2-.1.2-.6.2-.8h.1a1.7,1.7,0,0,0-.3-1.5"/><path class="cls-8" d="M63.9.7,62.5.5V.2h3.6V.5L64.7.7V6.8a3.9,3.9,0,0,1-4.2,4.3c-2.9,0-4.3-1.6-4.3-4.3V.7L55.1.5V.2h4.1V.5L58.1.7V6.6c0,2.5.9,3.7,2.8,3.7s3-1.4,3-3.7Z"/><polygon class="cls-8" points="75.3 0.7 73.9 0.5 73.9 0.2 77.4 0.2 77.4 0.5 76 0.7 76 10.9 74.9 10.9 69.1 1.8 69.1 10.4 70.5 10.6 70.5 10.9 67 10.9 67 10.6 68.3 10.4 68.3 0.7 67 0.5 67 0.2 70.4 0.2 75.3 7.9 75.3 0.7"/><polygon class="cls-8" points="81.3 10.4 82.5 10.6 82.5 10.9 78.3 10.9 78.3 10.6 79.5 10.4 79.5 0.7 78.3 0.5 78.3 0.2 82.5 0.2 82.5 0.5 81.3 0.7 81.3 10.4"/><polygon class="cls-8" points="84 0.7 83.1 0.5 83.1 0.2 87.4 0.2 87.4 0.5 86 0.7 89 8.9 89 8.9 91.7 0.7 90.2 0.5 90.2 0.2 93.8 0.2 93.8 0.5 92.5 0.7 88.9 11 87.9 11 84 0.7"/><polygon class="cls-8" points="97.4 5.2 100.2 5.2 100.3 3.6 100.8 3.6 100.8 7.4 100.3 7.4 100.2 5.8 97.4 5.8 97.4 10.3 101.7 10.3 102.2 8.4 102.6 8.4 102.5 10.9 94.4 10.9 94.4 10.6 95.6 10.4 95.6 0.7 94.4 0.5 94.4 0.2 102.3 0.2 102.4 2.7 101.9 2.7 101.5 0.8 97.4 0.8 97.4 5.2"/><path class="cls-8" d="M107.7,5.6c1.9,0,2.4-1,2.4-2.4S109.6.8,108,.8h-1.3V5.6Zm1.8.4,3.1,4.4.7.2v.3h-2.8l-2.9-4.7h-.9v4.2l1.2.2v.3h-4.2v-.3l1.2-.2V.7L103.7.5V.2h4.7c2.4,0,3.6,1.2,3.6,2.9A2.9,2.9,0,0,1,109.5,6"/><path class="cls-8" d="M114.2,7.4h.5l.3,2a3.1,3.1,0,0,0,2.4,1,1.8,1.8,0,0,0,2-1.9c0-1.2-1.1-1.8-2.2-2.3s-3-1.6-3-3.3S115.6,0,117.8,0a6.2,6.2,0,0,1,2.9.7V3.4h-.5L120,1.6a2.6,2.6,0,0,0-2.1-.9,1.5,1.5,0,0,0-1.7,1.6c0,1,.7,1.6,1.8,2.1s3.2,1.6,3.2,3.5-1.6,3.2-3.7,3.2a6.9,6.9,0,0,1-3.2-.8Z"/><polygon class="cls-8" points="125.4 10.4 126.6 10.6 126.6 10.9 122.4 10.9 122.4 10.6 123.5 10.4 123.5 0.7 122.4 0.5 122.4 0.2 126.6 0.2 126.6 0.5 125.4 0.7 125.4 10.4"/><path class="cls-8" d="M132.4,10.3c2.5,0,3.5-2.3,3.5-4.8S134.8.8,132.2.8h-1.5v9.5Zm-4.8.6v-.3l1.2-.2V.7L127.6.5V.2h4.8c3.3,0,5.5,2,5.5,5.3a5.2,5.2,0,0,1-5.5,5.4Z"/><path class="cls-8" d="M142.6,2.2l-1.4,4.5h3l-1.6-4.5Zm5,8.2,1,.2v.3h-4.4v-.3l1.3-.2-1.1-3.1h-3.5l-1,3.1,1.5.2v.3h-3.5v-.3l1.2-.2L142.7.1h1.1Z"/><path class="cls-8" d="M153.9,10.3c2.5,0,3.6-2.3,3.6-4.8S156.4.8,153.7.8h-1.5v9.5Zm-4.7.6v-.3l1.1-.2V.7L149.2.5V.2h4.7c3.3,0,5.6,2,5.6,5.3a5.3,5.3,0,0,1-5.6,5.4Z"/><path class="cls-8" d="M71.2,18l-2.1,6.3h4.4L71.3,18Zm7.2,11.6,1.4.2v.6H73.5v-.6l1.9-.2-1.6-4.4h-5l-1.4,4.4,2.1.2v.6H64.4v-.6l1.8-.2L71.4,15h1.5Z"/><polygon class="cls-8" points="92.5 15.8 90.5 15.6 90.5 15.1 95.5 15.1 95.5 15.6 93.5 15.8 93.5 30.4 91.9 30.4 83.6 17.4 83.6 29.6 85.6 29.8 85.6 30.4 80.6 30.4 80.6 29.8 82.5 29.6 82.5 15.8 80.6 15.6 80.6 15.1 85.5 15.1 92.5 26.1 92.5 15.8"/><path class="cls-8" d="M101.7,18l-2.1,6.3H104L101.8,18Zm7.2,11.6,1.4.2v.6H104v-.6l1.9-.2-1.6-4.4h-5l-1.4,4.4,2.1.2v.6H94.9v-.6l1.8-.2L101.9,15h1.5Z"/><polygon class="cls-8" points="124.7 15.1 129.1 15.1 129.1 15.6 127.4 15.8 127.4 29.6 129.1 29.8 129.1 30.4 123.1 30.4 123.1 29.8 124.7 29.6 124.7 18.1 120.3 30.5 119 30.5 114.1 17.4 114.1 29.6 116.1 29.8 116.1 30.4 111 30.4 111 29.8 113.1 29.6 113.1 15.8 111 15.6 111 15.1 116.2 15.1 120.5 26.9 124.7 15.1"/><polygon class="cls-8" points="134.9 22.3 138.9 22.3 139.1 20 139.7 20 139.7 25.4 139.1 25.4 138.9 23.1 134.9 23.1 134.9 29.5 141 29.5 141.7 26.8 142.3 26.8 142.1 30.4 130.5 30.4 130.5 29.8 132.2 29.6 132.2 15.8 130.5 15.6 130.5 15.1 141.9 15.1 142 18.7 141.3 18.7 140.8 16 134.9 16 134.9 22.3"/><path class="cls-8" d="M149.5,22.8c2.7,0,3.4-1.5,3.4-3.4s-.7-3.4-3-3.4h-1.8v6.8Zm2.7.6,4.4,6.2,1,.2v.6h-4l-4.2-6.7h-1.3v5.9l1.7.2v.6h-6v-.6l1.6-.2V15.8l-1.6-.2v-.5h6.8c3.3,0,5.1,1.7,5.1,4.1a4.1,4.1,0,0,1-3.5,4.2"/><polygon class="cls-8" points="162.9 29.6 164.6 29.8 164.6 30.4 158.6 30.4 158.6 29.8 160.2 29.6 160.2 15.8 158.6 15.6 158.6 15.1 164.6 15.1 164.6 15.6 162.9 15.8 162.9 29.6"/><path class="cls-8" d="M178.4,19.9h-.7l-.4-2.6a5.4,5.4,0,0,0-3.8-1.5c-3,0-4.9,2.8-4.9,6.9s1.9,7,4.9,7a5.4,5.4,0,0,0,3.8-1.5l.4-2.6h.7v3.7a10.8,10.8,0,0,1-5,1.3c-4.5,0-7.6-3.3-7.6-7.9s3.1-7.8,7.6-7.8a9.7,9.7,0,0,1,5,1.3Z"/><path class="cls-8" d="M185.9,18l-2.1,6.3h4.3L185.9,18Zm7.2,11.6,1.3.2v.6h-6.2v-.6l1.8-.2-1.5-4.4h-5L182,29.6l2.2.2v.6h-5.1v-.6l1.8-.2L186,15h1.5Z"/><polygon class="cls-8" points="207.1 15.8 205.1 15.6 205.1 15.1 210.1 15.1 210.1 15.6 208.2 15.8 208.2 30.4 206.6 30.4 198.2 17.4 198.2 29.6 200.2 29.8 200.2 30.4 195.2 30.4 195.2 29.8 197.1 29.6 197.1 15.8 195.2 15.6 195.2 15.1 200.1 15.1 207.1 26.1 207.1 15.8"/><path class="cls-8" d="M216.9,18l-2.1,6.3h4.4L217,18Zm7.2,11.6,1.4.2v.6h-6.3v-.6l1.9-.2-1.6-4.4h-5l-1.4,4.4,2.1.2v.6h-5.1v-.6l1.8-.2L217.1,15h1.5Z"/><path class="cls-8" d="M60.1,23.1c2.8,0,3.7-1.7,3.7-3.6s-.7-3.5-3-3.5H58.7v7.1Zm-1.4.8v5.7l1.7.2v.6h-6v-.6l1.7-.2V15.8l-1.7-.2v-.5h7c3.4,0,5.1,1.7,5.1,4.1s-1.5,4.7-6.2,4.7Z"/><path class="cls-8" d="M223.7,16.9a1.8,1.8,0,0,1,1.8-1.7,1.8,1.8,0,0,1,1.7,1.7,1.8,1.8,0,0,1-1.7,1.8,1.8,1.8,0,0,1-1.8-1.8m-.2,0a2,2,0,0,0,2,2,1.9,1.9,0,0,0,1.9-2,1.9,1.9,0,0,0-1.9-1.9,2,2,0,0,0-2,1.9m1.7.1v-.7h.2c.3,0,.4.1.4.3s-.2.4-.5.4Zm1-.4c0-.3-.2-.5-.7-.5h-.9a.3.3,0,0,1,.3.3v1a.3.3,0,0,1-.3.3h.9a.3.3,0,0,1-.3-.3v-.4h.2l.3.5.2.3h.5c-.1-.1-.2-.1-.3-.3l-.3-.4a.5.5,0,0,0,.4-.5"/></g></g></svg>